<svg width="32" height="32" viewBox="0 0 32 32" fill="none" xmlns="http://www.w3.org/2000/svg">
<path fill-rule="evenodd" clip-rule="evenodd" d="M23.5066 11.8572C23.7188 12.0695 23.8381 12.3574 23.8381 12.6576C23.8381 12.9578 23.7188 13.2457 23.5066 13.458L15.0213 21.9433C14.9092 22.0554 14.7761 22.1444 14.6295 22.2051C14.483 22.2658 14.326 22.297 14.1674 22.297C14.0088 22.297 13.8517 22.2658 13.7052 22.2051C13.5587 22.1444 13.4255 22.0554 13.3134 21.9433L9.09756 17.7282C8.98944 17.6237 8.90319 17.4988 8.84386 17.3607C8.78453 17.2226 8.7533 17.074 8.752 16.9237C8.75069 16.7734 8.77933 16.6243 8.83625 16.4852C8.89318 16.3461 8.97724 16.2197 9.08353 16.1134C9.18982 16.0071 9.31622 15.923 9.45535 15.8661C9.59448 15.8092 9.74355 15.7805 9.89387 15.7818C10.0442 15.7832 10.1927 15.8144 10.3309 15.8737C10.469 15.933 10.5939 16.0193 10.6983 16.1274L14.167 19.5961L21.9051 11.8572C22.0102 11.752 22.1351 11.6686 22.2725 11.6116C22.4099 11.5547 22.5571 11.5254 22.7059 11.5254C22.8546 11.5254 23.0019 11.5547 23.1393 11.6116C23.2767 11.6686 23.4015 11.752 23.5066 11.8572Z" fill="#CEF8F2"/>
<circle cx="16" cy="16" r="15" stroke="#CEF8F2" stroke-width="2"/>
</svg>
