<svg width="20" height="20" viewBox="0 0 20 20" fill="none" xmlns="http://www.w3.org/2000/svg">
<path d="M10 1H6C3.23858 1 1 3.23858 1 6V14C1 16.7614 3.23858 19 6 19H14C16.7614 19 19 16.7614 19 14V6C19 3.23858 16.7614 1 14 1H10Z" stroke="#F8FAF9" stroke-width="2" stroke-linecap="round" stroke-linejoin="round"/>
<path d="M10 6C12.2091 6 14 7.79086 14 10C14 12.2091 12.2091 14 10 14C7.79086 14 6 12.2091 6 10C6 7.79086 7.79086 6 10 6Z" stroke="#F8FAF9" stroke-width="2" stroke-linecap="round" stroke-linejoin="round"/>
<path d="M15 6.5C15.8284 6.5 16.5 5.82843 16.5 5C16.5 4.17157 15.8284 3.5 15 3.5C14.1716 3.5 13.5 4.17157 13.5 5C13.5 5.82843 14.1716 6.5 15 6.5Z" fill="#F8FAF9"/>
</svg>
