<svg width="18" height="17" viewBox="0 0 18 17" fill="none" xmlns="http://www.w3.org/2000/svg">
<path d="M4.07251 2.3749C4.07228 2.83903 3.88768 3.28405 3.55933 3.61208C3.23098 3.9401 2.78576 4.12426 2.32164 4.12402C1.85751 4.12379 1.41248 3.93919 1.08445 3.61084C0.75643 3.28249 0.572278 2.83728 0.57251 2.37315C0.572742 1.90902 0.757339 1.46399 1.08569 1.13597C1.41404 0.807943 1.85926 0.623792 2.32338 0.624024C2.78751 0.624256 3.23254 0.808853 3.56057 1.13721C3.88859 1.46556 4.07274 1.91077 4.07251 2.3749ZM4.12501 5.4199H0.62501V16.3749H4.12501V5.4199ZM9.65501 5.4199H6.17251V16.3749H9.62001V10.6261C9.62001 7.42365 13.7938 7.12615 13.7938 10.6261V16.3749H17.25V9.43615C17.25 4.0374 11.0725 4.23865 9.62001 6.8899L9.65501 5.4199Z" fill="#F8FAF9"/>
</svg>
